<?xml version="1.0" encoding="utf-8"?>
<!-- Generator: Adobe Illustrator 23.0.1, SVG Export Plug-In . SVG Version: 6.00 Build 0)  -->
<svg version="1.1" id="Layer_1" xmlns="http://www.w3.org/2000/svg" xmlns:xlink="http://www.w3.org/1999/xlink" x="0px" y="0px"
	 viewBox="0 0 330.6 92" style="enable-background:new 0 0 330.6 92;" xml:space="preserve">
<style type="text/css">
	.st0{fill:#502C1E;}
</style>
<g>
	<g>
		<path d="M218.7,57.2c0.2,0,0.2-0.4,0-0.4C218.4,56.8,218.4,57.2,218.7,57.2L218.7,57.2z"/>
	</g>
</g>
<g>
	<path class="st0" d="M41,15.8h8.3l23.5,60.6H61.5l-5.6-15.8H34l-5.7,15.8H17.7L41,15.8z M53.1,52.8c-1.9-5.4-3.5-10.3-4.9-14.6
		s-2.4-7.8-3.1-10.4c-0.9,2.6-1.9,6.3-3.3,10.6c-1.4,4.3-3,9.2-4.9,14.4H53.1z"/>
	<path class="st0" d="M75.9,76.5V70l26.4-46.2c-1.2,0.2-2.4,0.2-3.6,0.2c-1.2,0-2.6,0-4,0h-17l-1.4-8.3h39.4v6.4L90,68.1
		c1,0,2.1-0.2,3.1-0.2c1,0,2.3,0,3.5,0h20.2v8.3H75.9L75.9,76.5L75.9,76.5z"/>
	<path class="st0" d="M161,15.8l-1.4,8h-15.1v52.6h-10.6V23.8h-15.3v-8C118.6,15.8,161,15.8,161,15.8z"/>
	<path class="st0" d="M168.3,15.8c0.3,0,1.4,0,2.8,0c1.6,0,3.1,0,5,0c1.9,0,3.6,0,5.6,0c1.9,0,3.3,0,4.5,0c7.5,0,12.9,1.4,16.2,4.3
		c3.5,3,5,6.9,5,12.2c0,3.5-0.9,6.6-2.6,9.2s-4.5,4.7-8.5,5.9c1.7,0.9,3.1,2.3,4.5,4c1.4,1.7,2.6,3.6,3.8,6.1
		c1.2,2.4,2.6,5.2,3.8,8.3c1.4,3.1,2.8,6.8,4.5,10.8h-11.5c-2.1-4.7-3.8-8.7-5.4-12.2c-1.6-3.3-3-6.1-4.5-8.2
		c-1.4-2.1-3-3.6-4.7-4.5c-1.6-0.9-3.6-1.4-5.7-1.4h-2.6v26.2H168V15.8H168.3L168.3,15.8z M178.9,42.6h6.9c3.3,0,5.9-0.7,7.8-2.3
		c1.7-1.6,2.8-3.6,2.8-6.6c0-1.4-0.2-2.6-0.5-3.8c-0.3-1.2-1-2.4-1.9-3.3s-2.1-1.7-3.5-2.3c-1.4-0.5-3.3-0.9-5.6-0.9h-6.1V42.6z"/>
	<path class="st0" d="M219.6,15.8h36v8h-25.4v16.9H251l-1.4,8.2h-19.5v19.5H257v8h-37.4V15.8z"/>
	<path class="st0" d="M265.6,15.8h10.6v60.6h-10.6V15.8z M304.4,27.3c-1.2,3.1-2.4,5.7-3.8,8c-1.4,2.3-3,4-4.5,5.6
		c-1.6,1.6-3.5,3-5.2,4.2l22.1,31.4h-12.3l-23.1-32.8v-0.7c5.6-2.1,9.7-5.4,12.7-9.9c3-4.7,5.4-10.4,6.9-17.2h10.4
		C306.6,20.4,305.6,24.2,304.4,27.3z"/>
</g>
</svg>
